# File created by Blade
# Date/Time:  Wed Sep 24 20:21:23 2014
# Frame Rate: 120.000 fps
#------------------------------------------------------
:FULLY-SPECIFIED
:DEGREES
1093
root -2.680445 32.761248 -5.683081 14.640239 -0.891896 -1.846660
Spine -2.709082 3.125048 -1.611642
Head -14.878547 0.479290 8.445960
LeftShoulder -5.193362 14.200400 12.338556
LeftArm 31.408729 39.187221 -72.657573
LeftForeArm -4.542104 -0.000000 22.253871
LeftHand -27.654347 -0.000000 5.845174
LeftHandThumb1 -26.253704 0.000000 33.147579
RightShoulder -17.000598 14.104680 -23.617301
RightArm -10.894849 -50.272942 103.199036
RightForeArm -21.073696 -0.000000 24.673459
RightHand -4.469176 -0.000000 1.738204
RightHandThumb1 -24.326973 -0.000000 -32.862282
LeftUpLeg -11.757071 15.605962 -1.060884
LeftLeg -1.707242 -0.000000 0.000000
LeftFoot -10.718403 7.337222 -16.607966
LeftToeBase 7.749429 -0.000000 -0.000000
RightUpLeg -13.420146 -4.207299 -0.192134
RightLeg 1.524296 -0.000000 -0.000000
RightFoot -6.993933 -3.569937 -4.977788
RightToeBase -1.931895 -0.000000 0.000000
1094
root -2.690258 32.760783 -5.695242 14.676155 -1.003031 -1.870957
Spine -2.644818 3.091191 -1.607151
Head -14.955890 0.641001 8.416653
LeftShoulder -5.216275 14.260506 12.300080
LeftArm 31.616474 39.441028 -72.372962
LeftForeArm -3.937872 -0.000000 22.475909
LeftHand -27.723858 -0.000000 5.300522
LeftHandThumb1 -26.253704 0.000000 33.147579
RightShoulder -17.079883 13.964843 -23.591118
RightArm -10.832626 -50.235030 102.967389
RightForeArm -21.092667 -0.000000 24.772701
RightHand -4.451113 0.000000 1.794929
RightHandThumb1 -24.326973 -0.000000 -32.862282
LeftUpLeg -11.806862 15.678869 -1.055390
LeftLeg -1.708707 -0.000000 0.000000
LeftFoot -10.687310 7.395713 -16.516137
LeftToeBase 7.654689 -0.000000 -0.000000
RightUpLeg -13.489932 -4.224338 -0.142126
RightLeg 1.520617 -0.000000 -0.000000
RightFoot -6.974274 -3.448783 -5.015750
RightToeBase -1.934174 -0.000000 0.000000
1095
root -2.696356 32.760595 -5.707793 14.703509 -1.129653 -1.869730
Spine -2.583432 3.070780 -1.635940
Head -14.977438 0.756937 8.427112
LeftShoulder -5.200225 14.283936 12.310517
LeftArm 31.563288 39.291378 -72.583115
LeftForeArm -2.753619 0.000000 22.531883
LeftHand -27.669267 -0.000000 4.392189
LeftHandThumb1 -26.253704 0.000000 33.147579
RightShoulder -17.130111 13.847108 -23.546943
RightArm -10.798660 -50.211167 102.729431
RightForeArm -21.081318 0.000000 24.910494
RightHand -4.470479 -0.000000 1.812903
RightHandThumb1 -24.326973 -0.000000 -32.862282
LeftUpLeg -11.831595 15.730016 -1.075878
LeftLeg -1.735804 -0.000000 0.000000
LeftFoot -10.729034 7.488051 -16.570650
LeftToeBase 7.796232 -0.000000 -0.000000
RightUpLeg -13.538357 -4.210636 -0.131603
RightLeg 1.472316 -0.000000 -0.000000
RightFoot -6.935272 -3.297133 -5.019971
RightToeBase -1.939181 -0.000000 0.000000
1096
root -2.701428 32.760812 -5.722886 14.753219 -1.261962 -1.864614
Spine -2.557839 3.063424 -1.670759
Head -14.965094 0.864688 8.442564
LeftShoulder -5.206014 14.254631 12.293777
LeftArm 31.606348 39.362975 -72.582793
LeftForeArm -1.790055 -0.000000 22.621835
LeftHand -27.773558 -0.000000 4.107315
LeftHandThumb1 -26.253704 0.000000 33.147579
RightShoulder -17.167365 13.745362 -23.511765
RightArm -10.793112 -50.258131 102.521758
RightForeArm -20.961959 -0.000000 25.051102
RightHand -4.457882 -0.000000 1.695115
RightHandThumb1 -24.326973 -0.000000 -32.862282
LeftUpLeg -11.893099 15.764723 -1.121801
LeftLeg -1.742538 -0.000000 0.000000
LeftFoot -10.800280 7.658251 -16.679983
LeftToeBase 7.943702 -0.000000 -0.000000
RightUpLeg -13.617133 -4.191220 -0.128910
RightLeg 1.442852 -0.000000 -0.000000
RightFoot -6.895349 -3.188836 -5.027993
RightToeBase -1.986836 -0.000000 0.000000
1097
root -2.706695 32.761211 -5.735729 14.800424 -1.392833 -1.858402
Spine -2.543217 3.044053 -1.700722
Head -14.928918 0.977431 8.423692
LeftShoulder -5.257317 14.275169 12.254877
LeftArm 31.781288 39.579454 -72.342857
LeftForeArm -1.153383 -0.000000 22.796884
LeftHand -27.763078 -0.000000 3.673829
LeftHandThumb1 -26.253704 0.000000 33.147579
RightShoulder -17.200041 13.665783 -23.492359
RightArm -10.803687 -50.098213 102.333534
RightForeArm -20.997130 -0.000000 25.206308
RightHand -4.504695 -0.000000 1.776397
RightHandThumb1 -24.326973 -0.000000 -32.862282
LeftUpLeg -11.950022 15.839345 -1.163379
LeftLeg -1.753998 -0.000000 0.000000
LeftFoot -10.791803 7.738364 -16.652167
LeftToeBase 7.917174 -0.000000 -0.000000
RightUpLeg -13.683720 -4.166075 -0.128849
RightLeg 1.407148 -0.000000 -0.000000
RightFoot -6.859882 -3.102200 -5.055542
RightToeBase -2.011547 -0.000000 0.000000
1098
root -2.713378 32.760780 -5.750050 14.852355 -1.512108 -1.863229
Spine -2.535129 3.009305 -1.710751
Head -14.887557 1.078453 8.373149
LeftShoulder -5.321538 14.286970 12.222845
LeftArm 31.978364 39.833531 -72.107054
LeftForeArm -0.498387 -0.000000 22.951076
LeftHand -27.812150 -0.000000 3.464760
LeftHandThumb1 -26.253704 0.000000 33.147579
RightShoulder -17.231882 13.597459 -23.504923
RightArm -10.774209 -50.083732 102.151292
RightForeArm -20.862831 -0.000000 25.300154
RightHand -4.468177 -0.000000 1.869966
RightHandThumb1 -24.326973 -0.000000 -32.862282
LeftUpLeg -11.965946 15.760865 -1.129446
LeftLeg -1.831292 -0.000000 0.000000
LeftFoot -10.755144 7.856857 -16.634601
LeftToeBase 7.853328 -0.000000 -0.000000
RightUpLeg -13.766873 -4.152743 -0.110366
RightLeg 1.392206 -0.000000 -0.000000
RightFoot -6.834274 -3.003021 -5.063961
RightToeBase -2.008587 -0.000000 0.000000
1099
root -2.718831 32.760410 -5.765591 14.905118 -1.643286 -1.858516
Spine -2.527216 3.004942 -1.743447
Head -14.855037 1.154211 8.360479
LeftShoulder -5.349689 14.289636 12.208934
LeftArm 32.122164 39.961305 -71.974048
LeftForeArm 0.094293 -0.000000 23.072284
LeftHand -27.978283 -0.000000 3.294681
LeftHandThumb1 -26.253704 0.000000 33.147579
RightShoulder -17.280527 13.548511 -23.513537
RightArm -10.790622 -49.925900 102.016352
RightForeArm -20.975705 -0.000000 25.412115
RightHand -4.556027 -0.000000 1.869494
RightHandThumb1 -24.326973 -0.000000 -32.862282
LeftUpLeg -12.037421 15.790042 -1.171818
LeftLeg -1.829182 -0.000000 0.000000
LeftFoot -10.828788 8.013866 -16.730252
LeftToeBase 7.972665 -0.000000 -0.000000
RightUpLeg -13.865139 -4.114070 -0.109538
RightLeg 1.396310 -0.000000 -0.000000
RightFoot -6.825382 -2.939039 -5.114910
RightToeBase -1.971210 -0.000000 0.000000
1100
root -2.727115 32.760653 -5.781722 14.953844 -1.771137 -1.859110
Spine -2.512477 2.988077 -1.778714
Head -14.796055 1.203637 8.386768
LeftShoulder -5.374770 14.278066 12.215380
LeftArm 32.216305 40.013441 -71.906897
LeftForeArm 0.594855 -0.000000 23.156000
LeftHand -28.049367 -0.000000 2.594115
LeftHandThumb1 -26.253704 0.000000 33.147579
RightShoulder -17.317011 13.514292 -23.513611
RightArm -10.784131 -49.859756 101.869135
RightForeArm -20.982866 -0.000000 25.523824
RightHand -4.498463 -0.000000 1.933846
RightHandThumb1 -24.326973 -0.000000 -32.862282
LeftUpLeg -12.117703 15.872191 -1.188907
LeftLeg -1.800429 -0.000000 0.000000
LeftFoot -10.785604 8.033076 -16.596489
LeftToeBase 7.892391 -0.000000 -0.000000
RightUpLeg -13.960547 -4.041788 -0.106765
RightLeg 1.402370 -0.000000 -0.000000
RightFoot -6.802448 -2.878521 -5.138744
RightToeBase -1.982929 -0.000000 0.000000
1101
root -2.736409 32.760949 -5.797553 15.008549 -1.891369 -1.872423
Spine -2.514342 2.969406 -1.798546
Head -14.726718 1.279469 8.405606
LeftShoulder -5.413966 14.319514 12.207172
LeftArm 32.383729 40.025862 -71.819531
LeftForeArm 1.021531 -0.000000 23.182009
LeftHand -28.055632 -0.000000 1.940292
LeftHandThumb1 -26.253704 0.000000 33.147579
RightShoulder -17.371257 13.458944 -23.512917
RightArm -10.715145 -49.866602 101.706861
RightForeArm -20.921968 0.000000 25.580151
RightHand -4.508248 -0.000000 1.884287
RightHandThumb1 -24.326973 -0.000000 -32.862282
LeftUpLeg -12.206858 15.919074 -1.195705
LeftLeg -1.770766 -0.000000 0.000000
LeftFoot -10.788512 8.069333 -16.635185
LeftToeBase 7.795716 -0.000000 -0.000000
RightUpLeg -14.069775 -3.988025 -0.085130
RightLeg 1.425994 -0.000000 -0.000000
RightFoot -6.792436 -2.807956 -5.105120
RightToeBase -1.964348 -0.000000 0.000000
1102
root -2.746713 32.761292 -5.814487 15.055076 -1.976602 -1.879235
Spine -2.497868 2.942667 -1.824065
Head -14.682337 1.318017 8.421005
LeftShoulder -5.406723 14.308093 12.219732
LeftArm 32.438893 39.929516 -71.866553
LeftForeArm 1.237691 -0.000000 23.187462
LeftHand -28.036563 -0.000000 1.735645
LeftHandThumb1 -26.253704 0.000000 33.147579
RightShoulder -17.418677 13.425656 -23.507301
RightArm -10.652954 -49.687338 101.534355
RightForeArm -20.935641 0.000000 25.634668
RightHand -4.468019 0.000000 1.981461
RightHandThumb1 -24.326973 -0.000000 -32.862282
LeftUpLeg -12.298016 15.930378 -1.198495
LeftLeg -1.723537 -0.000000 0.000000
LeftFoot -10.818158 8.150998 -16.635932
LeftToeBase 7.790863 -0.000000 -0.000000
RightUpLeg -14.158194 -3.934927 -0.068692
RightLeg 1.429446 -0.000000 -0.000000
RightFoot -6.741778 -2.781946 -5.149433
RightToeBase -2.041254 -0.000000 0.000000
1103
root -2.754964 32.761860 -5.831425 15.097943 -2.102875 -1.887330
Spine -2.487535 2.901631 -1.851435
Head -14.606229 1.412429 8.430665
LeftShoulder -5.437969 14.289279 12.210055
LeftArm 32.471370 39.836219 -71.894648
LeftForeArm 1.372027 -0.000000 23.193270
LeftHand -27.992198 -0.000000 0.877188
LeftHandThumb1 -26.253704 0.000000 33.147579
RightShoulder -17.422449 13.421014 -23.510284
RightArm -10.592657 -49.598534 101.398284
RightForeArm -20.967289 -0.000000 25.676222
RightHand -4.466567 -0.000000 1.976436
RightHandThumb1 -24.326973 -0.000000 -32.862282
LeftUpLeg -12.370873 15.965144 -1.206862
LeftLeg -1.695404 -0.000000 0.000000
LeftFoot -10.848718 8.255743 -16.658313
LeftToeBase 7.800199 -0.000000 -0.000000
RightUpLeg -14.255114 -3.849688 -0.067295
RightLeg 1.458904 -0.000000 -0.000000
RightFoot -6.777254 -2.682041 -5.026527
RightToeBase -1.847739 -0.000000 0.000000
